{"scene":0,"asset":{"generator":"ImageToStl.com","version":"2.0"},"scenes":[{"name":"Scene","nodes":[0]}],"nodes":[{"name":"Node0","children":[1]},{"name":"Node1","mesh":0}],"materials":[{"name":"color_4634441","pbrMetallicRoughness":{"baseColorFactor":[0.27450982,0.7176471,0.28627452,1.0],"metallicFactor":0.0,"roughnessFactor":1.0},"doubleSided":true}],"meshes":[{"name":"Mesh0","primitives":[{"indices":1,"material":0,"attributes":{"POSITION":0}}]}],"accessors":[{"bufferView":0,"componentType":5126,"count":16832,"type":"VEC3","min":[-40.254,-39.751,0.005],"max":[40.254,39.751,81.307]},{"bufferView":1,"componentType":5123,"count":100986,"type":"SCALAR"}],"bufferViews":[{"target":34962,"buffer":0,"byteLength":201984,"byteOffset":0},{"target":34963,"buffer":0,"byteLength":201972,"byteOffset":201984}],"buffers":[{"byteLength":403956,"uri":"data:application/octet-stream;base64,"}]}