{"scene":0,"asset":{"generator":"ImageToStl.com","version":"2.0"},"scenes":[{"name":"Scene","nodes":[0]}],"nodes":[{"name":"Node0","children":[1]},{"name":"Node1","mesh":0}],"materials":[{"name":"color_40919","pbrMetallicRoughness":{"baseColorFactor":[0.0,0.62352943,0.84313726,1.0],"metallicFactor":0.0,"roughnessFactor":1.0},"doubleSided":true}],"meshes":[{"name":"Mesh0","primitives":[{"indices":1,"material":0,"attributes":{"POSITION":0}}]}],"accessors":[{"bufferView":0,"componentType":5126,"count":614,"type":"VEC3","min":[-4.0,-16.0,11.0],"max":[30.0,18.0,45.0]},{"bufferView":1,"componentType":5123,"count":3672,"type":"SCALAR"}],"bufferViews":[{"target":34962,"buffer":0,"byteLength":7368,"byteOffset":0},{"target":34963,"buffer":0,"byteLength":7344,"byteOffset":7368}],"buffers":[{"byteLength":14712,"uri":"data:application/octet-stream;base64,"}]}